<svg width="244" height="105" viewBox="0 0 244 105" fill="none" xmlns="http://www.w3.org/2000/svg">
<path d="M2 51.9175C5.73249 49.951 11.6782 49.4716 16.3789 48.6708C37.1762 45.1276 58.2583 42.1287 79.8153 40.4527C100.35 38.8562 120.997 39.1337 141.681 39.1337C165.651 39.1337 196.612 37.4621 217.865 45.2889C229.017 49.3957 241.193 58.3572 241.971 66.0878C242.667 73.0096 230.798 75.9327 221.55 78.8377C199.394 85.7975 175.766 91.9346 151.71 96.5253C129.115 100.837 103.088 105.659 79.5132 101.26C66.9444 98.9147 54.0043 95.9376 42.2368 92.5008C40.1056 91.8783 39.0279 91.483 38.9743 90.1334C38.6793 82.7006 43.4493 77.406 50.3325 71.1269C53.5052 68.2326 57.1204 65.9011 61.9323 63.8219C72.9509 59.0606 83.2771 54.2739 93.59 49.009C113.598 38.7947 134.388 28.6812 156.422 19.8567C171.774 13.7082 187.865 8.17429 203.184 2" stroke="#E4C590" stroke-width="3" stroke-linecap="round"/>
</svg>
