<svg width="10" height="39" viewBox="0 0 10 39" fill="none" xmlns="http://www.w3.org/2000/svg">
<path d="M10 11.9414C10 8.31328 8.82812 4.11406 8.125 0.712695V0.6875H7.5L7.48437 10.5053C7.48437 11.0176 7.25781 11.4375 6.78125 11.4375C6.33594 11.4375 6.15625 11.0764 6.10938 10.6061C6.10156 10.5725 6.10938 10.5389 6.10938 10.5053L5.30469 0.6875H4.67969L3.97656 10.5137L3.96875 10.6061C3.92188 11.0764 3.67969 11.4375 3.22656 11.4375C2.75 11.4375 2.51562 11.0176 2.51562 10.5053L2.48438 0.6875H1.85938C1.17188 4.13086 0 8.32168 0 11.9498C0 14.1082 1.14062 15.9895 2.86719 16.8377C3.74219 17.266 3.75 17.7027 3.75 17.7027C3.75 17.7027 2.5 34.6424 2.5 35.5998C2.5 36.5572 2.8125 37.1535 3.24219 37.6154C3.67188 38.0773 4.35156 38.3041 4.99219 38.3041H5.02344C5.66406 38.3041 6.33594 38.0773 6.77344 37.6154C7.20313 37.1535 7.5 36.7 7.5 35.5998C7.5 34.4996 6.25 17.7027 6.25 17.7027C6.25 17.7027 6.17187 17.2828 7.14062 16.8125C8.82812 15.9895 10 14.1082 10 11.9414Z" fill="#E4C590"/>
</svg>
