<svg width="335" height="63" viewBox="0 0 335 63" fill="none" xmlns="http://www.w3.org/2000/svg">
<path d="M7.376 37.688C6.48 37.688 5.712 37.56 5.072 37.304C4.47467 37.048 4.13333 36.8347 4.048 36.664C4.00533 36.5787 4.00533 36.5147 4.048 36.472C4.09067 36.3867 4.15467 36.3867 4.24 36.472C4.496 36.6427 4.98667 36.728 5.712 36.728C6.52267 36.728 7.54667 36.5147 8.784 36.088C10.0213 35.6187 11.344 34.7013 12.752 33.336C13.904 32.184 15.0773 30.776 16.272 29.112C17.4667 27.4053 18.7467 25.5707 20.112 23.608C18.704 23.3093 17.3813 22.8613 16.144 22.264C14.9493 21.624 14.16 20.7067 13.776 19.512C13.6907 19.1707 13.712 19 13.84 19C13.968 19 14.0747 19.1067 14.16 19.32C14.4587 19.7893 15.0987 20.1093 16.08 20.28C17.0613 20.408 18.064 20.472 19.088 20.472C19.728 20.472 20.3253 20.4507 20.88 20.408C21.4773 20.3653 21.9253 20.344 22.224 20.344H22.416C24.592 17.3147 27.0667 14.3067 29.84 11.32C32.6133 8.29066 35.8347 5.752 39.504 3.704C41.936 2.33867 44.3467 1.4 46.736 0.887997C49.168 0.333332 51.4933 0.0559998 53.712 0.0559998C55.9733 0.0559998 57.8933 0.631999 59.472 1.784C61.0933 2.89333 61.904 4.38667 61.904 6.264C61.904 8.48267 60.5813 10.8933 57.936 13.496C55.2907 16.0987 51.1733 18.424 45.584 20.472C42.4693 21.624 39.1627 22.5627 35.664 23.288C32.208 23.9707 28.7733 24.248 25.36 24.12C24.8053 24.12 24.208 24.0987 23.568 24.056C22.928 24.0133 22.2453 23.928 21.52 23.8C19.984 26.1467 18.5547 28.3227 17.232 30.328C15.9093 32.2907 14.6507 33.848 13.456 35C12.3893 36.024 11.3013 36.728 10.192 37.112C9.08267 37.496 8.144 37.688 7.376 37.688ZM24.016 20.152C26.9173 19.8107 29.9467 19.2133 33.104 18.36C36.304 17.5067 39.2907 16.568 42.064 15.544C47.44 13.5813 51.3013 11.5973 53.648 9.592C56.0373 7.544 57.232 5.77333 57.232 4.28C57.232 3.17066 56.7413 2.36 55.76 1.848C54.7787 1.336 53.648 1.08 52.368 1.08C50.704 1.08 48.7627 1.336 46.544 1.848C44.368 2.31733 42.1493 3.14933 39.888 4.344C36.6453 6.05067 33.7227 8.35467 31.12 11.256C28.5173 14.1147 26.1493 17.08 24.016 20.152ZM46.352 47.352C46.0533 47.352 45.968 47.1387 46.096 46.712C46.1387 46.584 46.16 46.4133 46.16 46.2C46.16 45.3467 45.392 44.536 43.856 43.768C42.32 43.0427 40.1653 42.4667 37.392 42.04C34.6187 41.5707 31.3333 41.336 27.536 41.336C25.1893 41.336 22.9067 41.4427 20.688 41.656C18.4693 41.8267 16.4213 42.1253 14.544 42.552C13.2213 42.8507 11.792 43.2347 10.256 43.704C8.76267 44.1733 7.33333 44.6 5.968 44.984C4.60267 45.4107 3.42933 45.624 2.448 45.624C1.808 45.624 1.296 45.496 0.912 45.24C0.485333 45.0267 0.272 44.5787 0.272 43.896C0.272 42.9147 0.890667 41.848 2.128 40.696C3.408 39.5013 5.584 38.4987 8.656 37.688C11.1733 36.9627 13.4773 36.5147 15.568 36.344C17.6587 36.1733 19.7493 36.088 21.84 36.088C30.3307 36.088 36.624 36.984 40.72 38.776C44.8587 40.568 46.928 42.8507 46.928 45.624C46.928 45.7947 46.928 45.944 46.928 46.072C46.928 46.2427 46.9067 46.4347 46.864 46.648C46.8213 47.1173 46.6507 47.352 46.352 47.352ZM65.499 21.368C65.3283 21.368 65.2217 21.24 65.179 20.984C65.1363 20.6853 65.2003 20.5147 65.371 20.472C66.651 20.344 67.8457 19.8747 68.955 19.064C70.0643 18.2533 70.9603 17.336 71.643 16.312C72.3257 15.2453 72.667 14.3067 72.667 13.496C72.3683 13.9227 71.9417 14.2853 71.387 14.584C70.875 14.8827 70.363 15.032 69.851 15.032C69.2537 15.032 68.763 14.84 68.379 14.456C68.0377 14.1573 67.867 13.7307 67.867 13.176C67.867 12.7067 67.995 12.216 68.251 11.704C68.507 11.1493 68.891 10.6587 69.403 10.232C70.3417 9.208 71.4723 8.696 72.795 8.696C73.2217 8.696 73.627 8.78133 74.011 8.952C74.395 9.12267 74.6937 9.42133 74.907 9.848C75.1203 10.1467 75.227 10.5947 75.227 11.192C75.227 12.088 74.9497 13.112 74.395 14.264C73.883 15.3733 73.179 16.4613 72.283 17.528C71.387 18.552 70.3417 19.4267 69.147 20.152C67.995 20.8773 66.779 21.2827 65.499 21.368ZM72.9575 43.064C71.6348 43.064 70.6108 42.6587 69.8855 41.848C69.1602 40.9947 68.7975 39.9067 68.7975 38.584C68.7975 37.3467 69.1175 35.9813 69.7575 34.488C70.4402 32.9947 71.5068 31.48 72.9575 29.944C74.4508 28.3227 76.3068 27.0213 78.5255 26.04C80.7442 25.016 82.8562 24.504 84.8615 24.504C86.4828 24.504 87.8695 24.8667 89.0215 25.592C90.1735 26.2747 90.9415 27.1493 91.3255 28.216C91.7948 28.216 92.3708 28.344 93.0535 28.6C93.7788 28.856 94.1415 29.3253 94.1415 30.008C94.1415 30.4773 93.9068 31.0107 93.4375 31.608C93.1388 32.0347 92.6055 32.6747 91.8375 33.528C91.1122 34.3813 90.4295 35.2987 89.7895 36.28C89.2775 37.048 88.8722 37.7733 88.5735 38.456C88.2748 39.096 88.1255 39.6507 88.1255 40.12C88.1255 40.76 88.4455 41.08 89.0855 41.08C89.8108 41.08 90.8988 40.6747 92.3495 39.864C93.9282 38.968 95.4428 37.944 96.8935 36.792C98.3442 35.64 99.4748 34.7227 100.286 34.04C100.499 33.8693 100.648 33.784 100.734 33.784C100.904 33.784 100.99 33.8907 100.99 34.104C100.99 34.36 100.883 34.5947 100.67 34.808C100.286 35.1493 99.5388 35.7893 98.4295 36.728C97.3202 37.6667 96.0402 38.648 94.5895 39.672C93.1815 40.696 91.7948 41.528 90.4295 42.168C89.7468 42.4667 89.1068 42.7013 88.5095 42.872C87.9548 43 87.4428 43.064 86.9735 43.064C85.8215 43.064 84.9468 42.744 84.3495 42.104C83.7522 41.4213 83.4535 40.5467 83.4535 39.48C83.4535 39.0533 83.5175 38.6053 83.6455 38.136C83.7735 37.6667 83.9228 37.1973 84.0935 36.728L84.5415 35.64C83.4322 37.0053 82.3228 38.1573 81.2135 39.096C80.1042 39.992 78.9948 40.7813 77.8855 41.464C76.9468 42.0187 76.0508 42.424 75.1975 42.68C74.3868 42.936 73.6402 43.064 72.9575 43.064ZM74.9415 41.4C75.7095 41.4 76.8188 40.952 78.2695 40.056C79.7202 39.1173 81.4055 37.688 83.3255 35.768C83.5815 35.512 84.0508 35.064 84.7335 34.424C85.4588 33.7413 86.2268 32.9947 87.0375 32.184C87.8482 31.3307 88.5308 30.4987 89.0855 29.688C89.6828 28.8347 89.9815 28.1307 89.9815 27.576C89.9815 26.7653 89.2775 26.36 87.8695 26.36C86.6322 26.36 85.1388 26.8507 83.3895 27.832C81.6828 28.7707 80.0402 30.1787 78.4615 32.056C76.8402 33.976 75.6455 35.64 74.8775 37.048C74.1522 38.4133 73.7895 39.4587 73.7895 40.184C73.7895 40.9947 74.1735 41.4 74.9415 41.4ZM119.011 45.496C118.456 45.2827 117.902 44.8987 117.347 44.344C116.835 43.7893 116.579 42.8293 116.579 41.464C116.579 40.312 116.771 39.1173 117.155 37.88C117.539 36.6 118.03 35.3413 118.627 34.104C117.518 35.512 116.302 36.8987 114.979 38.264C113.699 39.6293 112.398 40.76 111.075 41.656C109.795 42.5093 108.6 42.936 107.491 42.936C106.552 42.936 105.763 42.68 105.123 42.168C104.526 41.656 104.227 40.8667 104.227 39.8C104.227 39.032 104.376 38.2 104.675 37.304C104.974 36.408 105.507 35.4053 106.275 34.296C107.043 33.1867 107.875 32.0987 108.771 31.032C109.71 29.9227 110.52 28.984 111.203 28.216C111.672 27.6613 111.907 27.2133 111.907 26.872C111.907 26.4453 111.672 26.232 111.203 26.232C110.691 26.232 109.966 26.5733 109.027 27.256C108.046 27.9813 107 28.8773 105.891 29.944C104.782 30.968 103.736 31.9707 102.755 32.952C101.774 33.8907 100.942 34.6373 100.259 35.192C100.131 35.32 100.003 35.384 99.875 35.384C99.6617 35.384 99.555 35.256 99.555 35C99.555 34.7867 99.747 34.5093 100.131 34.168C102.008 32.5467 103.566 31.0747 104.803 29.752C106.04 28.3867 107.256 27.2347 108.451 26.296C109.091 25.784 109.752 25.4213 110.435 25.208C111.118 24.952 111.758 24.824 112.355 24.824C113.379 24.824 114.232 25.1227 114.915 25.72C115.598 26.3173 115.939 27.1493 115.939 28.216C115.939 29.0267 115.726 29.88 115.299 30.776C114.83 31.8427 114.19 32.9093 113.379 33.976C112.611 35 111.864 36.0027 111.139 36.984C110.584 37.7947 110.179 38.456 109.923 38.968C109.667 39.48 109.539 39.864 109.539 40.12C109.539 40.4613 109.71 40.632 110.051 40.632C110.392 40.632 110.883 40.44 111.523 40.056C112.163 39.672 112.824 39.1813 113.507 38.584C113.976 38.1573 114.382 37.7733 114.723 37.432C115.107 37.048 115.384 36.7707 115.555 36.6C116.536 35.576 117.518 34.488 118.499 33.336C119.48 32.1413 120.334 31.0533 121.059 30.072C121.614 29.3467 122.04 28.792 122.339 28.408C122.68 28.024 123.043 27.6187 123.427 27.192C124.152 26.3813 124.92 25.9547 125.731 25.912C126.2 25.912 126.734 26.0187 127.331 26.232C127.971 26.4027 128.59 26.7653 129.187 27.32C128.76 27.9173 128.12 28.7493 127.267 29.816C126.456 30.84 125.56 31.992 124.579 33.272C123.64 34.5093 122.723 35.7893 121.827 37.112C120.974 38.4347 120.27 39.672 119.715 40.824C119.16 41.976 118.883 42.9787 118.883 43.832C118.883 44.4293 119.054 44.8987 119.395 45.24C119.566 45.4107 119.566 45.496 119.395 45.496C119.224 45.5387 119.096 45.5387 119.011 45.496ZM133.474 44.088C132.109 44.088 131.063 43.6827 130.338 42.872C129.613 42.0613 129.25 40.9307 129.25 39.48C129.25 38.1147 129.613 36.5147 130.338 34.68L130.466 34.36L129.314 35.448C129.143 35.6187 128.951 35.704 128.738 35.704C128.525 35.704 128.418 35.6187 128.418 35.448C128.418 35.2347 128.567 34.9787 128.866 34.68C129.975 33.6987 131.106 32.6747 132.258 31.608C133.453 30.4987 134.455 29.4533 135.266 28.472C134.967 28.6 134.647 28.664 134.306 28.664C133.965 28.664 133.709 28.5787 133.538 28.408C133.239 28.1947 133.09 27.8107 133.09 27.256C133.09 26.7867 133.303 26.296 133.73 25.784C134.199 25.272 135.138 24.824 136.546 24.44C136.845 24.3547 137.143 24.2907 137.442 24.248C137.783 24.2053 138.103 24.1627 138.402 24.12C139.767 22.2 140.962 20.4293 141.986 18.808C143.01 17.144 143.821 16.0347 144.418 15.48C144.674 15.1813 145.122 14.9253 145.762 14.712C146.445 14.4987 147.149 14.328 147.874 14.2C148.642 14.072 149.239 14.008 149.666 14.008C151.074 14.008 151.778 14.136 151.778 14.392C151.778 14.5627 151.458 14.968 150.818 15.608C149.751 16.632 148.493 17.912 147.042 19.448C145.634 20.9413 144.183 22.5627 142.69 24.312C143.927 24.4827 145.058 24.8027 146.082 25.272C147.149 25.7413 147.917 26.3387 148.386 27.064C148.557 27.2773 148.642 27.5333 148.642 27.832C148.642 28.1733 148.535 28.344 148.322 28.344C148.151 28.344 147.959 28.2373 147.746 28.024C146.85 27.128 145.357 26.68 143.266 26.68C142.839 26.68 142.391 26.7013 141.922 26.744C141.495 26.7867 141.047 26.8507 140.578 26.936C139.127 28.8133 137.805 30.6907 136.61 32.568C135.415 34.4453 134.562 36.1947 134.05 37.816C133.794 38.584 133.666 39.288 133.666 39.928C133.666 40.568 133.815 41.1013 134.114 41.528C134.413 41.912 134.861 42.104 135.458 42.104C135.842 42.104 136.311 41.9973 136.866 41.784C137.677 41.4853 138.615 40.9947 139.682 40.312C140.749 39.5867 141.815 38.776 142.882 37.88C143.991 36.984 145.015 36.1093 145.954 35.256C146.935 34.4027 147.746 33.6773 148.386 33.08C149.026 32.4827 149.389 32.1413 149.474 32.056C149.602 31.928 149.709 31.864 149.794 31.864C149.965 31.864 150.05 31.992 150.05 32.248C150.05 32.5467 149.922 32.824 149.666 33.08C149.239 33.5067 148.578 34.1467 147.682 35C146.829 35.8533 145.826 36.8133 144.674 37.88C143.565 38.904 142.37 39.8853 141.09 40.824C139.81 41.7627 138.509 42.5307 137.186 43.128C135.906 43.768 134.669 44.088 133.474 44.088ZM160.887 43.064C159.82 43.064 158.967 42.7653 158.327 42.168C157.729 41.5707 157.431 40.76 157.431 39.736C157.431 39.096 157.58 38.3707 157.879 37.56C158.177 36.7493 158.647 35.9173 159.287 35.064C160.268 33.7413 161.207 32.5893 162.103 31.608C162.999 30.584 163.66 29.6667 164.087 28.856C164.513 28.088 164.727 27.4907 164.727 27.064C164.727 26.424 164.343 26.104 163.575 26.104C162.892 26.104 161.911 26.488 160.631 27.256C159.393 27.9813 158.092 29.176 156.727 30.84C155.959 31.7787 155.084 32.888 154.103 34.168C153.121 35.4053 152.332 36.5573 151.735 37.624C151.479 38.0933 151.223 38.584 150.967 39.096C150.753 39.5653 150.412 40.376 149.943 41.528C149.815 41.8267 149.452 42.1467 148.855 42.488C148.3 42.8293 147.852 43 147.511 43C147.255 43 147.127 42.8933 147.127 42.68C147.127 42.5093 147.191 42.296 147.319 42.04C147.532 41.656 148.001 40.44 148.727 38.392C149.495 36.344 150.455 33.9333 151.607 31.16C150.967 31.8427 150.263 32.5893 149.495 33.4C148.727 34.168 147.873 34.9147 146.934 35.64C146.764 35.8107 146.572 35.896 146.358 35.896C146.102 35.896 145.974 35.7893 145.974 35.576C145.974 35.4053 146.166 35.1707 146.55 34.872C147.532 34.0187 148.513 33.1227 149.495 32.184C150.476 31.2027 151.543 29.9867 152.695 28.536C153.079 27.5973 153.761 26.2533 154.743 24.504C155.724 22.712 156.897 20.728 158.263 18.552C159.628 16.376 161.143 14.2 162.807 12.024C164.471 9.848 166.177 7.90666 167.927 6.2C169.505 4.664 171.148 3.49067 172.855 2.68C174.604 1.86933 176.183 1.464 177.591 1.464C178.828 1.464 179.831 1.76266 180.599 2.36C181.367 2.95733 181.751 3.91733 181.751 5.24C181.751 6.56267 181.388 7.97066 180.663 9.464C179.937 10.9573 179.169 12.152 178.359 13.048C176.524 15.096 174.348 16.9733 171.831 18.68C169.356 20.3867 166.753 21.8373 164.023 23.032C163.937 23.0747 163.852 23.1173 163.767 23.16C163.681 23.16 163.596 23.16 163.51 23.16C163.212 23.16 163.062 23.0533 163.062 22.84C163.062 22.584 163.297 22.3707 163.767 22.2C165.388 21.4747 167.031 20.5787 168.695 19.512C170.401 18.4453 171.98 17.2933 173.431 16.056C174.881 14.8187 176.097 13.5813 177.079 12.344C178.231 10.8933 178.977 9.72 179.319 8.824C179.66 7.88533 179.831 7.096 179.831 6.456C179.831 5.60266 179.361 5.176 178.423 5.176C177.996 5.176 177.377 5.38933 176.567 5.816C175.756 6.2 174.796 6.84 173.687 7.736C171.98 9.10133 170.209 10.7653 168.375 12.728C166.583 14.6907 164.812 16.824 163.062 19.128C161.356 21.432 159.735 23.7787 158.199 26.168C156.663 28.5573 155.276 30.8827 154.039 33.144C154.551 32.4187 155.084 31.6933 155.639 30.968C156.193 30.2 156.748 29.5173 157.303 28.92C158.583 27.512 159.841 26.488 161.079 25.848C162.316 25.208 163.425 24.888 164.407 24.888C165.516 24.888 166.412 25.2293 167.095 25.912C167.777 26.552 168.119 27.4267 168.119 28.536C168.119 29.1333 168.012 29.7307 167.799 30.328C167.628 30.8827 167.415 31.3947 167.159 31.864C166.817 32.5893 166.369 33.4427 165.815 34.424C165.26 35.4053 164.727 36.3227 164.215 37.176C163.233 38.7547 162.743 39.8853 162.743 40.568C162.743 40.952 162.913 41.144 163.255 41.144C163.681 41.144 164.385 40.8453 165.367 40.248C166.135 39.7787 166.988 39.1813 167.927 38.456C168.908 37.688 169.868 36.8987 170.807 36.088C171.788 35.2773 172.62 34.5733 173.303 33.976C174.028 33.336 174.497 32.9093 174.711 32.696C174.967 32.44 175.159 32.312 175.287 32.312C175.415 32.312 175.479 32.376 175.479 32.504C175.479 32.7173 175.329 33.016 175.031 33.4C173.921 34.552 172.535 35.8533 170.871 37.304C169.207 38.7547 167.329 40.1627 165.239 41.528C164.428 42.0827 163.639 42.488 162.871 42.744C162.145 42.9573 161.484 43.064 160.887 43.064ZM179.083 43.64C177.206 43.64 175.627 43.192 174.347 42.296C173.11 41.3573 172.491 40.0133 172.491 38.264C172.491 36.3867 172.939 34.6373 173.835 33.016C174.731 31.3947 175.926 29.9867 177.419 28.792C178.912 27.5547 180.534 26.5947 182.283 25.912C184.075 25.2293 185.846 24.888 187.595 24.888C189.344 24.888 190.646 25.208 191.499 25.848C192.352 26.4453 192.779 27.192 192.779 28.088C192.779 28.9413 192.374 29.8587 191.563 30.84C190.795 31.7787 189.664 32.6107 188.171 33.336C187.232 33.7627 186.144 34.1467 184.907 34.488C183.712 34.7867 182.667 34.936 181.771 34.936C181.088 34.936 180.747 34.8293 180.747 34.616C180.747 34.4453 181.046 34.36 181.643 34.36C182.198 34.36 183.051 34.2107 184.203 33.912C185.398 33.5707 186.55 33.1227 187.659 32.568C188.896 31.8853 189.771 31.2027 190.283 30.52C190.795 29.8373 191.051 29.2187 191.051 28.664C191.051 28.152 190.838 27.7253 190.411 27.384C190.027 27.0427 189.472 26.872 188.747 26.872C188.064 26.872 187.296 27.064 186.443 27.448C185.206 28.0027 183.926 28.92 182.603 30.2C181.323 31.4373 180.256 32.8027 179.403 34.296C178.55 35.7893 178.123 37.2187 178.123 38.584C178.123 39.5227 178.379 40.312 178.891 40.952C179.446 41.592 180.256 41.912 181.323 41.912C182.432 41.912 183.712 41.5707 185.163 40.888C186.614 40.1627 188.086 39.288 189.579 38.264C191.072 37.1973 192.459 36.1307 193.739 35.064C195.019 33.9973 196.043 33.1013 196.811 32.376C197.067 32.12 197.259 31.992 197.387 31.992C197.515 31.992 197.579 32.0987 197.579 32.312C197.579 32.6107 197.451 32.8667 197.195 33.08C195.574 34.5733 193.803 36.1307 191.883 37.752C190.006 39.3733 187.979 40.76 185.803 41.912C183.67 43.0213 181.43 43.5973 179.083 43.64ZM194.305 43.32C193.878 43.32 193.366 43.2133 192.769 43C192.172 42.8293 191.574 42.488 190.977 41.976C191.446 41.336 192.129 40.4827 193.025 39.416C193.878 38.3067 194.796 37.0907 195.777 35.768C196.758 34.4453 197.676 33.1227 198.529 31.8C197.846 32.4827 197.1 33.208 196.289 33.976C195.478 34.744 194.668 35.448 193.857 36.088C193.686 36.2587 193.494 36.344 193.281 36.344C193.11 36.344 193.025 36.2587 193.025 36.088C193.025 35.8747 193.196 35.6187 193.537 35.32C194.732 34.2533 196.054 33.0373 197.505 31.672C198.998 30.264 200.086 28.8347 200.769 27.384C200.982 26.872 201.089 26.4027 201.089 25.976C201.089 25.4213 200.982 25.08 200.769 24.952C200.598 24.824 200.513 24.6533 200.513 24.44C200.513 24.056 200.705 23.864 201.089 23.864C201.302 23.864 201.473 23.9067 201.601 23.992C202.07 24.2053 202.518 24.6107 202.945 25.208C203.372 25.8053 203.585 26.7013 203.585 27.896C203.585 28.5787 203.5 29.368 203.329 30.264C203.158 31.1173 202.86 32.0987 202.433 33.208C203.073 32.3547 203.713 31.5227 204.353 30.712C205.036 29.9013 205.654 29.176 206.209 28.536C207.361 27.2133 208.513 26.2747 209.665 25.72C210.86 25.1227 211.926 24.824 212.865 24.824C213.974 24.824 214.87 25.144 215.553 25.784C216.236 26.424 216.577 27.256 216.577 28.28C216.577 29.0907 216.364 29.9227 215.937 30.776C215.809 31.1173 215.51 31.6507 215.041 32.376C214.572 33.0587 214.06 33.8053 213.505 34.616C212.95 35.4267 212.438 36.152 211.969 36.792C211.414 37.4747 211.03 38.072 210.817 38.584C210.604 39.0533 210.497 39.4373 210.497 39.736C210.497 40.1627 210.732 40.376 211.201 40.376C211.798 40.376 212.63 40.056 213.697 39.416C214.337 39.032 215.062 38.52 215.873 37.88C216.726 37.1973 217.558 36.5147 218.369 35.832C219.222 35.1067 219.905 34.5093 220.417 34.04C220.588 33.8693 220.737 33.784 220.865 33.784C221.036 33.784 221.121 33.8907 221.121 34.104C221.121 34.36 221.014 34.5947 220.801 34.808C219.521 36.0027 218.028 37.304 216.321 38.712C214.657 40.12 213.014 41.208 211.393 41.976C210.07 42.616 208.854 42.936 207.745 42.936C206.806 42.936 206.06 42.7013 205.505 42.232C204.95 41.72 204.673 40.9947 204.673 40.056C204.673 39.3733 204.844 38.5627 205.185 37.624C205.612 36.472 206.209 35.32 206.977 34.168C207.788 33.016 208.62 31.928 209.473 30.904C210.369 29.8373 211.137 28.9413 211.777 28.216C212.332 27.6187 212.609 27.1067 212.609 26.68C212.609 26.296 212.353 26.104 211.841 26.104C211.329 26.104 210.561 26.4027 209.537 27C208.556 27.5547 207.446 28.472 206.209 29.752C204.46 31.5867 202.924 33.5707 201.601 35.704C200.278 37.8373 198.764 39.8427 197.057 41.72C196.118 42.7867 195.201 43.32 194.305 43.32ZM224.286 44.088C222.921 44.088 221.876 43.6827 221.151 42.872C220.425 42.0613 220.062 40.9307 220.062 39.48C220.062 38.1147 220.425 36.5147 221.151 34.68L221.279 34.36L220.127 35.448C219.956 35.6187 219.764 35.704 219.55 35.704C219.337 35.704 219.23 35.6187 219.23 35.448C219.23 35.2347 219.38 34.9787 219.678 34.68C220.788 33.6987 221.919 32.6747 223.071 31.608C224.265 30.4987 225.268 29.4533 226.079 28.472C225.78 28.6 225.46 28.664 225.119 28.664C224.777 28.664 224.521 28.5787 224.351 28.408C224.052 28.1947 223.903 27.8107 223.903 27.256C223.903 26.7867 224.116 26.296 224.543 25.784C225.012 25.272 225.951 24.824 227.359 24.44C227.657 24.3547 227.956 24.2907 228.255 24.248C228.596 24.2053 228.916 24.1627 229.215 24.12C230.58 22.2 231.775 20.4293 232.799 18.808C233.823 17.144 234.633 16.0347 235.231 15.48C235.487 15.1813 235.935 14.9253 236.575 14.712C237.257 14.4987 237.961 14.328 238.687 14.2C239.455 14.072 240.052 14.008 240.479 14.008C241.887 14.008 242.591 14.136 242.591 14.392C242.591 14.5627 242.271 14.968 241.631 15.608C240.564 16.632 239.305 17.912 237.855 19.448C236.447 20.9413 234.996 22.5627 233.503 24.312C234.74 24.4827 235.871 24.8027 236.895 25.272C237.961 25.7413 238.729 26.3387 239.199 27.064C239.369 27.2773 239.455 27.5333 239.455 27.832C239.455 28.1733 239.348 28.344 239.135 28.344C238.964 28.344 238.772 28.2373 238.559 28.024C237.663 27.128 236.169 26.68 234.079 26.68C233.652 26.68 233.204 26.7013 232.735 26.744C232.308 26.7867 231.86 26.8507 231.391 26.936C229.94 28.8133 228.617 30.6907 227.423 32.568C226.228 34.4453 225.375 36.1947 224.863 37.816C224.607 38.584 224.479 39.288 224.479 39.928C224.479 40.568 224.628 41.1013 224.927 41.528C225.225 41.912 225.673 42.104 226.271 42.104C226.655 42.104 227.124 41.9973 227.679 41.784C228.489 41.4853 229.428 40.9947 230.495 40.312C231.561 39.5867 232.628 38.776 233.695 37.88C234.804 36.984 235.828 36.1093 236.767 35.256C237.748 34.4027 238.559 33.6773 239.199 33.08C239.839 32.4827 240.201 32.1413 240.287 32.056C240.415 31.928 240.521 31.864 240.607 31.864C240.777 31.864 240.863 31.992 240.863 32.248C240.863 32.5467 240.735 32.824 240.479 33.08C240.052 33.5067 239.391 34.1467 238.495 35C237.641 35.8533 236.639 36.8133 235.487 37.88C234.377 38.904 233.183 39.8853 231.903 40.824C230.623 41.7627 229.321 42.5307 227.999 43.128C226.719 43.768 225.481 44.088 224.286 44.088ZM252.147 23.416C251.55 23.416 251.102 23.224 250.803 22.84C250.504 22.456 250.355 22.0507 250.355 21.624C250.355 20.7707 250.76 19.9387 251.571 19.128C252.382 18.2747 253.235 17.848 254.131 17.848C254.728 17.848 255.176 18.04 255.475 18.424C255.774 18.808 255.923 19.2133 255.923 19.64C255.923 20.536 255.518 21.3893 254.707 22.2C253.939 23.0107 253.086 23.416 252.147 23.416ZM242.355 43.064C240.606 43.064 239.411 42.7013 238.771 41.976C238.174 41.208 237.875 40.3547 237.875 39.416C237.875 38.648 238.003 37.9227 238.259 37.24C238.515 36.5147 238.728 36.0027 238.899 35.704C239.155 35.2773 239.496 34.7867 239.923 34.232C240.392 33.6773 240.904 33.08 241.459 32.44C240.606 33.1653 239.795 33.8693 239.027 34.552C238.302 35.2347 237.704 35.7467 237.235 36.088C237.107 36.216 236.979 36.28 236.851 36.28C236.68 36.28 236.595 36.1733 236.595 35.96C236.595 35.6187 236.83 35.2773 237.299 34.936C238.408 33.9973 239.475 32.9733 240.499 31.864C241.566 30.7547 242.568 29.7307 243.507 28.792C244.446 27.8107 245.278 27.128 246.003 26.744C246.771 26.3173 247.39 26.04 247.859 25.912C248.328 25.784 248.712 25.72 249.011 25.72C249.48 25.72 249.822 25.8053 250.035 25.976C250.248 26.104 250.291 26.2533 250.163 26.424C249.438 27.1493 248.712 28.088 247.987 29.24C247.304 30.3493 246.664 31.5227 246.067 32.76C245.47 33.9973 244.979 35.1707 244.595 36.28C244.254 37.3893 244.083 38.328 244.083 39.096C244.083 40.1627 244.51 40.696 245.363 40.696C246.174 40.696 247.219 40.3333 248.499 39.608C249.822 38.84 251.187 37.88 252.595 36.728C254.046 35.576 255.39 34.4453 256.627 33.336C256.798 33.1653 256.947 33.08 257.075 33.08C257.288 33.08 257.395 33.1867 257.395 33.4C257.438 33.6133 257.395 33.7627 257.267 33.848C255.859 35.1707 254.259 36.5573 252.467 38.008C250.718 39.416 248.947 40.6107 247.155 41.592C245.406 42.5733 243.806 43.064 242.355 43.064ZM263.116 62.456C261.879 62.2427 260.983 61.6027 260.428 60.536C259.916 59.512 259.66 58.4027 259.66 57.208C259.66 55.4587 260.023 53.7093 260.748 51.96C261.516 50.2533 262.284 48.6533 263.052 47.16C263.905 45.5387 264.823 43.9173 265.804 42.296C266.785 40.632 267.745 39.0533 268.684 37.56C267.916 38.3707 267.127 39.1173 266.316 39.8C265.505 40.44 264.716 40.9947 263.948 41.464C263.009 42.0187 262.113 42.424 261.26 42.68C260.449 42.936 259.703 43.064 259.02 43.064C257.697 43.064 256.673 42.6587 255.948 41.848C255.223 40.9947 254.86 39.9067 254.86 38.584C254.86 37.3467 255.18 35.9813 255.82 34.488C256.503 32.9947 257.569 31.48 259.02 29.944C260.513 28.3227 262.369 27.0213 264.588 26.04C266.807 25.016 268.961 24.504 271.052 24.504C272.588 24.504 273.932 24.8667 275.084 25.592C276.279 26.3173 277.047 27.192 277.388 28.216C277.687 28.216 277.857 28.28 277.9 28.408C278.327 28.4507 278.775 28.5787 279.244 28.792C279.756 29.0053 280.247 29.2827 280.716 29.624C280.119 30.392 279.201 31.608 277.964 33.272C276.769 34.936 275.425 36.856 273.932 39.032C272.439 41.208 270.945 43.448 269.452 45.752C267.959 48.0987 266.615 50.3173 265.42 52.408C264.225 54.4987 263.351 56.2907 262.796 57.784C262.625 58.296 262.497 58.744 262.412 59.128C262.327 59.512 262.284 59.8533 262.284 60.152C262.284 60.7067 262.391 61.112 262.604 61.368C262.817 61.6667 263.073 61.9013 263.372 62.072C263.5 62.1147 263.5 62.1787 263.372 62.264C263.244 62.392 263.159 62.456 263.116 62.456ZM260.812 41.656C261.537 41.656 262.583 41.2293 263.948 40.376C265.356 39.48 266.977 38.072 268.812 36.152C269.836 35.0853 270.625 34.232 271.18 33.592C271.777 32.9093 272.311 32.2693 272.78 31.672C273.292 31.032 273.953 30.3067 274.764 29.496C275.063 29.1973 275.276 28.8773 275.404 28.536C275.532 28.1947 275.596 27.9173 275.596 27.704C275.596 26.8507 274.892 26.424 273.484 26.424C272.289 26.424 270.881 26.8933 269.26 27.832C267.681 28.7707 266.103 30.1787 264.524 32.056C262.817 34.0187 261.58 35.7253 260.812 37.176C260.044 38.6267 259.66 39.7147 259.66 40.44C259.66 41.2507 260.044 41.656 260.812 41.656ZM299.324 45.496C298.769 45.2827 298.214 44.8987 297.66 44.344C297.148 43.7893 296.892 42.8293 296.892 41.464C296.892 40.312 297.084 39.1173 297.468 37.88C297.852 36.6 298.342 35.3413 298.94 34.104C297.83 35.512 296.614 36.8987 295.292 38.264C294.012 39.6293 292.71 40.76 291.388 41.656C290.108 42.5093 288.913 42.936 287.804 42.936C286.865 42.936 286.076 42.68 285.436 42.168C284.838 41.656 284.54 40.8667 284.54 39.8C284.54 39.032 284.689 38.2 284.988 37.304C285.286 36.408 285.82 35.4053 286.588 34.296C287.356 33.1867 288.188 32.0987 289.084 31.032C290.022 29.9227 290.833 28.984 291.516 28.216C291.985 27.6613 292.22 27.2133 292.22 26.872C292.22 26.4453 291.985 26.232 291.516 26.232C291.004 26.232 290.278 26.5733 289.34 27.256C288.358 27.9813 287.313 28.8773 286.204 29.944C285.094 30.968 284.049 31.9707 283.068 32.952C282.086 33.8907 281.254 34.6373 280.572 35.192C280.444 35.32 280.316 35.384 280.188 35.384C279.974 35.384 279.867 35.256 279.867 35C279.867 34.7867 280.059 34.5093 280.444 34.168C282.321 32.5467 283.878 31.0747 285.116 29.752C286.353 28.3867 287.569 27.2347 288.764 26.296C289.404 25.784 290.065 25.4213 290.748 25.208C291.43 24.952 292.07 24.824 292.668 24.824C293.692 24.824 294.545 25.1227 295.228 25.72C295.91 26.3173 296.252 27.1493 296.252 28.216C296.252 29.0267 296.038 29.88 295.612 30.776C295.142 31.8427 294.502 32.9093 293.692 33.976C292.924 35 292.177 36.0027 291.452 36.984C290.897 37.7947 290.492 38.456 290.236 38.968C289.98 39.48 289.852 39.864 289.852 40.12C289.852 40.4613 290.022 40.632 290.364 40.632C290.705 40.632 291.196 40.44 291.836 40.056C292.476 39.672 293.137 39.1813 293.82 38.584C294.289 38.1573 294.694 37.7733 295.036 37.432C295.42 37.048 295.697 36.7707 295.868 36.6C296.849 35.576 297.83 34.488 298.812 33.336C299.793 32.1413 300.646 31.0533 301.372 30.072C301.926 29.3467 302.353 28.792 302.652 28.408C302.993 28.024 303.356 27.6187 303.74 27.192C304.465 26.3813 305.233 25.9547 306.044 25.912C306.513 25.912 307.046 26.0187 307.644 26.232C308.284 26.4027 308.902 26.7653 309.5 27.32C309.073 27.9173 308.433 28.7493 307.58 29.816C306.769 30.84 305.873 31.992 304.892 33.272C303.953 34.5093 303.036 35.7893 302.14 37.112C301.286 38.4347 300.582 39.672 300.028 40.824C299.473 41.976 299.196 42.9787 299.196 43.832C299.196 44.4293 299.366 44.8987 299.708 45.24C299.878 45.4107 299.878 45.496 299.708 45.496C299.537 45.5387 299.409 45.5387 299.324 45.496ZM315.771 43.64C313.893 43.64 312.315 43.192 311.035 42.296C309.797 41.3573 309.178 40.0133 309.178 38.264C309.178 36.3867 309.627 34.6373 310.523 33.016C311.419 31.3947 312.613 29.9867 314.107 28.792C315.6 27.5547 317.221 26.5947 318.97 25.912C320.763 25.2293 322.533 24.888 324.283 24.888C326.032 24.888 327.333 25.208 328.187 25.848C329.04 26.4453 329.467 27.192 329.467 28.088C329.467 28.9413 329.061 29.8587 328.251 30.84C327.483 31.7787 326.352 32.6107 324.859 33.336C323.92 33.7627 322.832 34.1467 321.595 34.488C320.4 34.7867 319.355 34.936 318.459 34.936C317.776 34.936 317.435 34.8293 317.435 34.616C317.435 34.4453 317.733 34.36 318.331 34.36C318.885 34.36 319.739 34.2107 320.891 33.912C322.085 33.5707 323.237 33.1227 324.347 32.568C325.584 31.8853 326.459 31.2027 326.971 30.52C327.483 29.8373 327.739 29.2187 327.739 28.664C327.739 28.152 327.525 27.7253 327.099 27.384C326.715 27.0427 326.16 26.872 325.435 26.872C324.752 26.872 323.984 27.064 323.131 27.448C321.893 28.0027 320.613 28.92 319.291 30.2C318.011 31.4373 316.944 32.8027 316.091 34.296C315.237 35.7893 314.811 37.2187 314.811 38.584C314.811 39.5227 315.067 40.312 315.579 40.952C316.133 41.592 316.944 41.912 318.01 41.912C319.12 41.912 320.4 41.5707 321.851 40.888C323.301 40.1627 324.773 39.288 326.267 38.264C327.76 37.1973 329.147 36.1307 330.427 35.064C331.707 33.9973 332.731 33.1013 333.499 32.376C333.755 32.12 333.947 31.992 334.075 31.992C334.203 31.992 334.267 32.0987 334.267 32.312C334.267 32.6107 334.139 32.8667 333.883 33.08C332.261 34.5733 330.491 36.1307 328.571 37.752C326.693 39.3733 324.667 40.76 322.491 41.912C320.357 43.0213 318.117 43.5973 315.771 43.64Z" fill="white"/>
</svg>
