<svg width="10" height="39" viewBox="0 0 10 39" fill="none" xmlns="http://www.w3.org/2000/svg">
<path d="M10 11.4375C10 6.0625 7.92969 0.6875 5 0.6875C2.07031 0.6875 0 6.0625 0 11.4375C0.0703125 13.5371 1.22656 15.9979 2.85938 16.8377C2.89844 16.8545 2.92969 16.8713 2.96875 16.8881H2.97656C3.24219 17.0477 3.74219 17.35 3.74219 17.7027C3.74219 17.7027 2.49219 34.3904 2.49219 35.3479C2.49219 36.3053 2.88281 37.0695 3.3125 37.5314C3.74219 37.9934 4.33594 38.3041 4.97656 38.3041H5.00781C5.64844 38.3041 6.24219 37.9934 6.67969 37.5314C7.10938 37.0695 7.48437 36.448 7.48437 35.3479C7.48437 34.2477 6.23437 17.7027 6.23437 17.7027C6.23437 17.35 6.73438 17.0393 7 16.8797L7.13281 16.8041C8.82031 15.9727 10 13.6211 10 11.4375Z" fill="#E4C590"/>
</svg>
